<svg version="1.1" id="Layer_1" xmlns="http://www.w3.org/2000/svg" xmlns:xlink="http://www.w3.org/1999/xlink" x="0px" y="0px"
	 width="100%" viewBox="0 0 1080 1080" enable-background="new 0 0 1080 1080" xml:space="preserve">
<path fill="#FFFFFF" opacity="1.000000" stroke="none" 
	d="
M609.000000,1081.000000 
	C406.023376,1081.000000 203.546738,1081.000000 1.035051,1081.000000 
	C1.035051,721.064941 1.035051,361.129822 1.035051,1.097364 
	C360.893524,1.097364 720.787109,1.097364 1080.840332,1.097364 
	C1080.840332,360.999939 1080.840332,720.999939 1080.840332,1081.000000 
	C923.796082,1081.000000 766.648010,1081.000000 609.000000,1081.000000 
M54.500114,8.421423 
	C37.584862,8.421423 20.669609,8.421423 2.858040,8.421423 
	C180.648300,364.167999 357.919403,718.875732 535.395142,1073.992920 
	C536.117981,1072.759521 536.647949,1071.962769 537.073303,1071.113647 
	C548.330078,1048.644775 559.582092,1026.173462 570.822571,1003.696472 
	C594.276306,956.797363 617.672729,909.869324 641.265015,863.040039 
	C643.217102,859.165283 643.072998,856.227722 641.162781,852.455872 
	C626.796570,824.089783 612.643311,795.615967 598.423157,767.175903 
	C557.922729,686.175537 517.412476,605.180054 476.924438,524.173584 
	C437.325531,444.945831 397.754608,365.704132 358.161530,286.473480 
	C312.611755,195.322693 267.026367,104.189629 221.588120,12.983277 
	C219.817947,9.430061 217.852829,8.323606 213.987503,8.333192 
	C161.158630,8.464198 108.329330,8.421689 54.500114,8.421423 
M764.189636,220.679398 
	C745.445618,257.276978 726.687561,293.867340 707.960449,330.473602 
	C670.202820,404.279175 632.513062,478.119598 594.600647,551.845581 
	C592.053833,556.798218 591.987610,560.563782 594.498291,565.551147 
	C625.337952,626.812622 655.941772,688.192810 686.610962,749.540039 
	C690.787170,757.893494 694.987305,766.234985 699.514832,775.256348 
	C826.172913,519.212341 952.411011,264.017456 1079.052979,8.006089 
	C1076.256836,8.006089 1074.630615,7.992635 1073.004517,8.008028 
	C1007.358154,8.629449 941.711914,9.278922 876.064758,9.799741 
	C872.882751,9.824986 871.358154,11.027117 870.000977,13.685979 
	C834.884155,82.483070 799.701050,151.246323 764.189636,220.679398 
z"/>
<path fill="#FF722C" opacity="1.000000" stroke="none" 
	d="
M55.000122,8.421657 
	C108.329330,8.421689 161.158630,8.464198 213.987503,8.333192 
	C217.852829,8.323606 219.817947,9.430061 221.588120,12.983277 
	C267.026367,104.189629 312.611755,195.322693 358.161530,286.473480 
	C397.754608,365.704132 437.325531,444.945831 476.924438,524.173584 
	C517.412476,605.180054 557.922729,686.175537 598.423157,767.175903 
	C612.643311,795.615967 626.796570,824.089783 641.162781,852.455872 
	C643.072998,856.227722 643.217102,859.165283 641.265015,863.040039 
	C617.672729,909.869324 594.276306,956.797363 570.822571,1003.696472 
	C559.582092,1026.173462 548.330078,1048.644775 537.073303,1071.113647 
	C536.647949,1071.962769 536.117981,1072.759521 535.395142,1073.992920 
	C357.919403,718.875732 180.648300,364.167999 2.858040,8.421423 
	C20.669609,8.421423 37.584862,8.421423 55.000122,8.421657 
z"/>
<path fill="#FF722C" opacity="1.000000" stroke="none" 
	d="
M764.359497,220.347412 
	C799.701050,151.246323 834.884155,82.483070 870.000977,13.685979 
	C871.358154,11.027117 872.882751,9.824986 876.064758,9.799741 
	C941.711914,9.278922 1007.358154,8.629449 1073.004517,8.008028 
	C1074.630615,7.992635 1076.256836,8.006089 1079.052979,8.006089 
	C952.411011,264.017456 826.172913,519.212341 699.514832,775.256348 
	C694.987305,766.234985 690.787170,757.893494 686.610962,749.540039 
	C655.941772,688.192810 625.337952,626.812622 594.498291,565.551147 
	C591.987610,560.563782 592.053833,556.798218 594.600647,551.845581 
	C632.513062,478.119598 670.202820,404.279175 707.960449,330.473602 
	C726.687561,293.867340 745.445618,257.276978 764.359497,220.347412 
z"/>
</svg>